<svg width="601" height="515" viewBox="0 0 601 515" fill="none" xmlns="http://www.w3.org/2000/svg">
<g clip-path="url(#clip0_1_596)">
<path d="M310.998 432.535L328.599 427.349L323.463 445L328.599 462.601L310.998 457.465L293.347 462.601L298.533 445L293.347 427.349L310.998 432.535Z" fill="black" stroke="white" stroke-miterlimit="10"/>
</g>
<g clip-path="url(#clip1_1_596)">
<path d="M124.947 345.509L156.423 362.659L124.947 379.947L107.728 411.354L90.5092 379.947L59.0332 362.659L90.5092 345.509L107.728 313.964L124.947 345.509Z" fill="black" stroke="white" stroke-miterlimit="10"/>
</g>
<path d="M345.585 201.187C414.024 238.937 472.758 278.935 512.39 313.077C532.209 330.151 547.232 345.742 556.306 358.842C560.843 365.393 563.876 371.297 565.288 376.433C566.699 381.568 566.479 385.89 564.579 389.333C562.68 392.777 559.141 395.268 554.046 396.813C548.949 398.359 542.337 398.943 534.375 398.6C518.455 397.913 497.253 393.524 472.239 385.868C422.219 370.558 357.057 342.216 288.617 304.465C220.178 266.715 161.444 226.717 121.812 192.575C101.993 175.501 86.9705 159.91 77.8969 146.81C73.3595 140.259 70.3259 134.355 68.9141 129.218C67.503 124.084 67.7226 119.763 69.6219 116.319C71.5215 112.875 75.06 110.384 80.1554 108.839C85.2531 107.293 91.8658 106.709 99.8271 107.052C115.747 107.739 136.949 112.128 161.962 119.784C211.983 135.094 277.146 163.436 345.585 201.187Z" stroke="black"/>
<path d="M325.355 237.861C393.794 275.611 452.527 315.609 492.16 349.751C511.979 366.825 527.002 382.416 536.075 395.516C540.613 402.066 543.645 407.971 545.057 413.107C546.468 418.241 546.248 422.563 544.349 426.007C542.449 429.451 538.911 431.942 533.816 433.487C528.718 435.033 522.106 435.617 514.145 435.274C498.225 434.587 477.023 430.198 452.009 422.542C401.988 407.232 336.826 378.89 268.387 341.139C199.948 303.389 141.214 263.391 101.581 229.249C81.7621 212.175 66.74 196.584 57.6664 183.484C53.129 176.933 50.0955 171.029 48.6836 165.892C47.2725 160.758 47.4921 156.437 49.3915 152.993C51.291 149.549 54.8296 147.057 59.9249 145.512C65.0227 143.966 71.6354 143.383 79.5967 143.726C95.517 144.413 116.718 148.802 141.732 156.458C191.752 171.768 256.915 200.11 325.355 237.861Z" stroke="black"/>
<path d="M305.126 274.535C373.565 312.285 432.299 352.283 471.931 386.425C491.75 403.499 506.773 419.09 515.847 432.19C520.384 438.741 523.417 444.645 524.829 449.782C526.24 454.916 526.02 459.238 524.12 462.682C522.221 466.125 518.683 468.616 513.587 470.161C508.49 471.707 501.878 472.292 493.916 471.948C477.996 471.261 456.794 466.872 431.78 459.216C381.76 443.906 316.598 415.564 248.158 377.814C179.719 340.063 120.985 300.065 81.3526 265.923C61.5336 248.849 46.5115 233.258 37.4379 220.158C32.9005 213.608 29.867 207.703 28.4551 202.566C27.044 197.433 27.2636 193.111 29.1629 189.667C31.0625 186.223 34.601 183.732 39.6964 182.187C44.7942 180.641 51.4069 180.057 59.3681 180.4C75.2885 181.087 96.4897 185.476 121.503 193.132C171.524 208.442 236.687 236.784 305.126 274.535Z" stroke="black"/>
<circle cx="131.5" cy="104.5" r="15.5" fill="#B9FF66"/>
<circle cx="420.999" cy="435" r="10" fill="#B9FF66"/>
<circle cx="81.4995" cy="64.5" r="23.5" fill="black"/>
<path d="M305.972 383.59C299.668 385.744 292.463 381.475 289.957 374.071L250.958 259.81L273.747 252.014L312.785 366.433C315.291 373.758 312.236 381.435 305.972 383.59Z" fill="black"/>
<path d="M302.565 385C300.725 385 298.845 384.569 297.044 383.668C293.403 381.866 290.505 378.498 289.095 374.345L250.097 260.084C249.94 259.653 250.175 259.144 250.645 258.987L273.433 251.192C273.668 251.114 273.903 251.114 274.099 251.231C274.295 251.349 274.451 251.505 274.53 251.74L313.567 366.159C316.191 373.915 312.902 382.101 306.206 384.412C305.071 384.804 303.818 385 302.565 385ZM252.055 260.358L290.779 373.797C292.032 377.518 294.616 380.574 297.827 382.141C300.411 383.394 303.191 383.629 305.697 382.767C311.492 380.77 314.311 373.562 311.962 366.707L273.198 253.111L252.055 260.358Z" fill="black"/>
<path d="M269.713 153.382L195.984 205.988L167.283 235.798L156.006 255.736L155.967 255.892C153.735 259.339 155.027 267.291 159.217 275.399C163.328 283.39 169.123 288.953 173.195 289.266L173.078 289.344L194.731 291.695L235.257 285.231L321.281 254.443L428.214 272.775L428.957 272.814C402.097 267.8 365.839 231.88 339.488 181.076C313.175 130.31 304.796 80.1321 316.347 55.376H316.308L270.3 152.128L269.713 153.382Z" fill="#B9FF66"/>
<path d="M446.729 270.603C473.156 256.873 468.046 194.629 435.315 131.577C402.583 68.5249 354.626 28.5414 328.198 42.2713C301.771 56.0013 306.881 118.245 339.612 181.297C372.344 244.349 420.301 284.333 446.729 270.603Z" fill="white"/>
<path d="M435.106 274.185C423.594 274.185 409.733 267.761 394.815 255.266C374.493 238.266 354.563 212.06 338.705 181.428C314.703 135.05 304.797 87.4964 313.489 60.2725C316.387 51.1849 321.242 44.8392 327.859 41.4313C341.016 34.6939 359.536 40.4129 380.053 57.5698C400.375 74.57 420.305 100.775 436.163 131.407C460.204 177.785 470.11 225.339 461.379 252.563C458.481 261.651 453.626 267.996 447.009 271.404C443.446 273.284 439.452 274.185 435.106 274.185ZM339.841 40.4129C335.808 40.4129 332.049 41.2354 328.682 42.9981C322.456 46.171 317.914 52.2033 315.173 60.8601C306.598 87.6922 316.465 134.737 340.272 180.723C372.692 243.279 420.227 283.312 446.265 269.955C452.49 266.782 457.032 260.75 459.773 252.093C468.348 225.261 458.481 178.216 434.675 132.23C406.444 77.782 366.819 40.4129 339.841 40.4129Z" fill="black"/>
<path d="M435.105 274.185C423.594 274.185 409.733 267.761 394.815 255.266C374.493 238.266 354.563 212.06 338.705 181.428C314.703 135.05 304.797 87.4964 313.489 60.2726C316.387 51.1849 321.242 44.8392 327.859 41.4313C336.669 36.8875 348.181 38.0234 361.141 44.6825C373.553 51.0674 386.984 62.3878 400.061 77.3903C400.375 77.7428 400.335 78.2912 399.983 78.6046C399.631 78.9179 399.082 78.8788 398.769 78.5262C372.222 48.0512 345.361 34.4197 328.681 42.9982C322.456 46.171 317.914 52.2033 315.173 60.8601C306.598 87.6922 316.465 134.737 340.271 180.723C368.463 235.132 408.127 272.54 435.066 272.54C439.099 272.54 442.858 271.718 446.225 269.955C452.451 266.782 456.993 260.75 459.734 252.093C468.309 225.261 458.442 178.216 434.635 132.23C427.548 118.52 419.561 105.633 410.986 93.9204C410.712 93.5287 410.79 92.9803 411.181 92.7061C411.573 92.4319 412.121 92.5103 412.395 92.902C421.049 104.692 429.036 117.658 436.202 131.446C460.204 177.786 470.11 225.339 461.378 252.563C458.481 261.651 453.626 267.996 447.008 271.404C443.445 273.284 439.452 274.185 435.105 274.185Z" fill="black"/>
<path d="M386.766 190.339C392.888 187.158 391.711 172.751 384.136 158.159C376.561 143.567 365.457 134.316 359.335 137.497C353.213 140.678 354.39 155.085 361.965 169.677C369.54 184.269 380.644 193.519 386.766 190.339Z" fill="#B9FF66"/>
<path d="M384.087 191.848C377.352 191.848 367.955 183.152 361.181 170.03C355.542 159.14 353.232 147.937 355.307 141.474C356.051 139.202 357.265 137.596 358.949 136.734C365.605 133.327 377 142.61 384.909 157.848C390.547 168.737 392.857 179.94 390.782 186.403C390.038 188.675 388.824 190.281 387.141 191.143C386.201 191.613 385.183 191.848 384.087 191.848ZM362.003 137.714C361.181 137.714 360.398 137.87 359.732 138.223C358.44 138.889 357.5 140.142 356.913 141.983C354.994 148.016 357.226 158.749 362.669 169.246C369.873 183.152 380.719 192.514 386.318 189.615C387.611 188.949 388.55 187.696 389.138 185.855C391.056 179.783 388.785 169.09 383.382 158.592C377.039 146.41 367.955 137.714 362.003 137.714Z" fill="#B9FF66"/>
<path d="M429.154 259.574C419.052 259.574 406.914 253.934 393.836 243.005C376.06 228.12 358.596 205.166 344.735 178.373C323.709 137.792 315.056 96.153 322.652 72.2979C325.197 64.307 329.465 58.7447 335.299 55.7286C348.69 48.8737 368.385 56.7862 389.372 77.4293C389.725 77.7818 389.725 78.2911 389.372 78.6436C389.02 78.9961 388.511 78.9961 388.159 78.6436C367.72 58.5489 348.729 50.7147 336.082 57.2562C330.679 60.0374 326.724 65.2471 324.296 72.8071C316.818 96.2314 325.432 137.361 346.262 177.59C370.891 225.182 405.543 257.851 429.115 257.851C432.639 257.851 435.889 257.107 438.865 255.618C444.268 252.837 448.223 247.627 450.65 240.067C458.129 216.643 449.515 175.513 428.684 135.285C422.38 123.142 415.332 111.743 407.736 101.441C407.462 101.049 407.54 100.501 407.932 100.227C408.324 99.9526 408.872 100.031 409.146 100.423C416.82 110.842 423.907 122.28 430.25 134.501C451.277 175.083 459.93 216.721 452.334 240.576C449.789 248.567 445.521 254.13 439.687 257.146C436.476 258.752 432.952 259.574 429.154 259.574Z" fill="black"/>
<path d="M194.771 292.517C194.732 292.517 194.692 292.517 194.692 292.517L173.04 290.167C172.922 290.167 172.805 290.128 172.687 290.05C168.224 289.345 162.585 283.704 158.474 275.791C154.088 267.448 152.796 259.3 155.185 255.462L155.224 255.344L166.501 235.367C166.54 235.289 166.579 235.249 166.618 235.21L195.319 205.401C195.358 205.362 195.397 205.323 195.436 205.284L268.97 152.795L315.486 54.9846C315.604 54.7887 315.76 54.632 315.995 54.5537C316.23 54.4753 316.465 54.4753 316.661 54.5929C317.092 54.7887 317.288 55.2979 317.092 55.7288C305.306 80.9941 314.625 131.211 340.232 180.645C365.879 230.157 401.628 266.821 429.154 271.874C429.585 271.953 429.898 272.344 429.859 272.814C429.82 273.245 429.428 273.559 428.997 273.598L428.253 273.559C428.214 273.559 428.175 273.559 428.136 273.559L321.399 255.266L235.571 285.976C235.531 285.976 235.453 286.015 235.414 286.015L194.888 292.478C194.849 292.517 194.81 292.517 194.771 292.517ZM173.666 288.522L194.771 290.794L235.101 284.331L321.086 253.581C321.242 253.542 321.36 253.503 321.516 253.542L417.603 269.994C391.643 258.595 361.298 224.947 338.784 181.468C316.426 138.301 306.441 94.4689 311.923 66.775L270.497 153.735C270.419 153.852 270.34 153.97 270.223 154.048L196.572 206.655L167.989 236.307L156.712 256.284C156.712 256.323 156.673 256.363 156.673 256.363C154.637 259.535 156.007 267.37 159.962 275.008C163.838 282.49 169.437 288.13 173.275 288.404C173.431 288.404 173.549 288.444 173.666 288.522Z" fill="black"/>
<path d="M269.83 153.069L316.307 55.337H316.346C304.795 80.093 313.214 130.271 339.487 181.037C365.838 231.881 402.096 267.8 429.035 272.736L428.291 272.697L321.515 254.404L319.048 253.973C306.636 251.779 290.073 235.641 278.209 212.608C266.032 188.988 263.878 165.447 269.282 154.244L269.83 153.069Z" fill="white"/>
<path d="M429.035 273.598C428.996 273.598 429.035 273.598 429.035 273.598L428.252 273.559C428.213 273.559 428.174 273.559 428.135 273.559L321.358 255.266L318.892 254.835C305.775 252.524 289.134 235.719 277.426 213.039C264.153 187.265 263.487 164.311 268.499 153.891L269.086 152.716L315.563 55.0236C315.681 54.8278 315.837 54.6711 316.072 54.5927C316.307 54.5144 316.542 54.5144 316.738 54.6319C317.169 54.8278 317.365 55.337 317.169 55.7679C305.383 81.0332 314.702 131.25 340.31 180.684C365.956 230.196 401.705 266.86 429.231 271.913C429.662 271.992 429.975 272.383 429.936 272.853C429.818 273.245 429.466 273.598 429.035 273.598ZM311.844 66.7749L270.613 153.46L270.026 154.635C265.053 164.977 266.502 188.087 278.953 212.217C290.426 234.466 306.597 250.918 319.205 253.111L321.672 253.542L417.563 269.994C391.603 258.595 361.258 224.947 338.743 181.468C316.386 138.301 306.401 94.4688 311.844 66.7749Z" fill="black"/>
<path d="M193.596 292.4C193.556 292.4 193.517 292.4 193.517 292.4L173 290.206C172.882 290.206 172.765 290.167 172.647 290.089C168.184 289.384 162.545 283.743 158.434 275.83C154.088 267.448 152.796 259.3 155.184 255.462L155.223 255.344L166.5 235.367C166.735 234.936 167.244 234.818 167.675 235.053C168.105 235.288 168.223 235.798 167.988 236.229L156.711 256.284C156.711 256.323 156.672 256.362 156.672 256.362C154.636 259.535 156.007 267.37 159.961 275.008C163.838 282.49 169.437 288.13 173.274 288.404C173.391 288.404 173.548 288.444 173.626 288.522L193.674 290.676C194.144 290.715 194.496 291.146 194.418 291.616C194.379 292.047 194.026 292.4 193.596 292.4Z" fill="black"/>
<path d="M194.966 291.538C188.309 291.068 178.99 281.628 172.217 268.584C165.051 254.757 163.367 240.459 167.753 235.367L156.045 255.736L155.967 255.893C153.735 259.34 155.027 267.291 159.217 275.4C163.328 283.391 169.123 288.953 173.195 289.266L173.078 289.345L194.966 291.538Z" fill="white"/>
<path d="M194.966 292.4C194.927 292.4 194.927 292.4 194.888 292.4C194.731 292.4 194.535 292.361 194.379 292.361L173 290.206C172.882 290.206 172.765 290.167 172.647 290.089C168.184 289.384 162.545 283.743 158.434 275.83C154.088 267.448 152.796 259.3 155.184 255.462L155.223 255.344L165.521 237.404C165.913 236.385 166.422 235.484 167.048 234.74C167.322 234.388 167.831 234.348 168.184 234.583C168.536 234.858 168.654 235.328 168.419 235.719L166.97 238.187C164.66 244.415 166.931 256.637 172.882 268.075C179.343 280.57 188.153 289.697 194.457 290.52L194.927 290.559C195.397 290.598 195.749 291.029 195.71 291.499C195.749 292.047 195.397 292.4 194.966 292.4ZM173.626 288.522L188.584 290.05C182.828 286.367 176.485 278.768 171.434 268.976C166.539 259.535 164.112 249.743 164.503 242.692L156.711 256.284C156.711 256.323 156.672 256.363 156.672 256.363C154.636 259.535 156.007 267.37 159.961 275.008C163.838 282.49 169.437 288.13 173.274 288.404C173.391 288.404 173.548 288.444 173.626 288.522Z" fill="black"/>
<path d="M233.807 285.388L235.53 285.035C226.211 286.994 211.489 272.892 201.113 252.876C190.502 232.429 188.505 212.021 196.023 205.988L195.044 206.968L167.831 235.249C163.367 240.263 165.012 254.639 172.216 268.544C179.147 281.941 188.975 291.499 195.67 291.46L233.807 285.388Z" fill="black"/>
<path d="M195.632 292.361C188.506 292.361 178.599 282.764 171.434 268.976C164.151 254.874 162.311 240.146 167.166 234.701L193.87 206.968C194.34 206.341 194.888 205.793 195.475 205.323C195.828 205.048 196.337 205.088 196.65 205.401C196.963 205.754 196.963 206.263 196.65 206.576L195.123 208.182C189.68 215.468 192.382 234.113 201.897 252.485C212.155 272.305 226.486 285.897 235.257 284.252L235.374 284.213C235.844 284.135 236.275 284.409 236.392 284.879C236.471 285.349 236.197 285.78 235.727 285.897C235.688 285.897 235.648 285.897 235.609 285.937L234.004 286.25H233.965L195.828 292.321C195.749 292.321 195.671 292.361 195.632 292.361ZM191.599 211.825L168.458 235.876C164.151 240.733 166.109 254.913 173 268.192C179.735 281.197 189.25 290.598 195.632 290.637L229.305 285.271C220.221 282.059 209.023 269.955 200.37 253.307C192.147 237.443 188.975 221.304 191.599 211.825Z" fill="black"/>
<path d="M359.341 137.479C353.193 140.612 354.094 155.145 361.925 169.638C375.042 193.885 385.496 191.025 386.71 190.594C386.749 190.594 386.749 190.634 386.71 190.634L364.196 208.77C357.579 199.486 351.275 189.145 345.48 177.981C339.959 167.288 335.299 156.633 331.619 146.292L359.341 137.479Z" fill="black"/>
<path d="M364.196 209.632C364.156 209.632 364.117 209.632 364.078 209.632C363.843 209.592 363.647 209.475 363.491 209.279C356.717 199.76 350.413 189.341 344.735 178.412C339.293 167.914 334.594 157.221 330.835 146.645C330.757 146.41 330.757 146.175 330.874 145.979C330.992 145.783 331.149 145.626 331.383 145.548L359.105 136.734C359.536 136.617 360.006 136.813 360.163 137.244C360.319 137.674 360.163 138.144 359.771 138.34C358.44 139.006 357.461 140.338 356.873 142.297C354.955 148.446 357.304 159.336 362.747 169.325C375.551 192.984 385.418 190.281 386.475 189.889C386.866 189.733 387.336 189.929 387.532 190.281C387.728 190.634 387.65 191.143 387.336 191.417L364.744 209.436C364.587 209.553 364.391 209.632 364.196 209.632ZM332.754 146.84C336.474 157.064 341.016 167.405 346.262 177.59C351.744 188.166 357.852 198.233 364.391 207.516L383.93 191.77C379.466 191.574 371.048 188.244 361.181 170.03C355.464 159.493 353.115 148.368 355.19 141.67C355.464 140.808 355.777 140.064 356.169 139.359L332.754 146.84Z" fill="black"/>
<path d="M475.186 81.5974C493.086 72.1937 500.009 50.1159 490.649 32.2852C481.29 14.4546 459.191 7.62316 441.291 17.0269C423.391 26.4306 416.468 48.5084 425.828 66.339C435.187 84.1697 457.286 91.0011 475.186 81.5974Z" fill="black"/>
<path d="M441.567 41.2352C443.289 38.8849 445.835 37.4356 448.732 37.1223C450.925 36.8872 452.961 37.3573 454.879 38.5324C455.858 39.12 456.72 39.8642 457.542 40.7652C458.129 39.7075 458.834 38.7674 459.656 37.984C461.262 36.4172 463.18 35.5162 465.334 35.2812C468.231 34.9678 471.051 35.8296 473.243 37.749C475.397 39.6292 476.767 42.3712 477.12 45.4657C477.472 48.6385 476.611 51.6939 474.418 55.0626C472.46 58.0787 469.484 61.2124 466.039 64.8945C464.864 66.1479 463.533 67.5581 462.162 69.0466C461.81 69.4383 461.301 69.7125 460.753 69.7517C460.205 69.83 459.696 69.6733 459.226 69.36C457.542 68.1848 455.937 67.0881 454.527 66.1479C450.377 63.3276 446.774 60.899 444.19 58.3921C441.293 55.611 439.805 52.7906 439.452 49.6178C439.139 46.5233 439.883 43.5463 441.567 41.2352Z" fill="white"/>
<path d="M576.735 83.5924C589.839 70.4828 589.839 49.2279 576.735 36.1183C563.63 23.0088 542.384 23.0087 529.28 36.1183C516.175 49.2279 516.175 70.4828 529.28 83.5924C542.384 96.7019 563.63 96.7019 576.735 83.5924Z" fill="#B9FF66"/>
<path d="M553.001 94.273C534.05 94.273 518.583 78.8397 518.583 59.8417C518.583 40.883 534.011 25.4104 553.001 25.4104C571.991 25.4104 587.418 40.8438 587.418 59.8417C587.418 78.8005 571.991 94.273 553.001 94.273ZM553.001 27.134C534.989 27.134 520.306 41.7839 520.306 59.8417C520.306 77.8604 534.95 92.5495 553.001 92.5495C571.012 92.5495 585.696 77.8996 585.696 59.8417C585.696 41.8231 571.051 27.134 553.001 27.134Z" fill="#B9FF66"/>
<path d="M562.084 63.1713C560.205 63.1713 558.561 64.0723 557.464 65.4824L546.148 61.0561C546.148 60.8994 546.187 60.7819 546.187 60.6252C546.187 60.351 546.148 60.0768 546.109 59.8026L557.699 54.4362C558.756 55.6505 560.322 56.4339 562.084 56.4731C565.295 56.4731 567.958 53.8486 567.958 50.5974C567.958 47.3462 565.334 44.6826 562.084 44.6826C558.874 44.6826 556.211 47.3071 556.211 50.5583C556.211 50.8325 556.25 51.1067 556.29 51.3809L544.7 56.7473C543.642 55.533 542.076 54.7496 540.314 54.7104C537.103 54.7104 534.441 57.3348 534.441 60.586C534.441 63.8372 537.064 66.5009 540.314 66.5009C542.194 66.5009 543.838 65.5999 544.934 64.1898L556.25 68.6161C556.25 68.7728 556.211 68.8903 556.211 69.047C556.211 72.2982 558.835 74.9618 562.084 74.9618C565.295 74.9618 567.958 72.3373 567.958 69.0861C567.919 65.8349 565.295 63.2105 562.084 63.1713Z" fill="black"/>
<path d="M562.529 189.993C577.895 179.322 581.756 158.282 571.152 142.999C560.548 127.715 539.494 123.975 524.128 134.645C508.761 145.315 504.9 166.355 515.505 181.639C526.109 196.923 547.162 200.663 562.529 189.993Z" fill="black"/>
<path d="M534.874 178.373L529.94 151.619C529.705 150.248 530.958 149.112 532.289 149.465L561.46 157.73C562.948 158.161 563.3 160.08 562.087 161.02L537.81 179.509C536.753 180.371 535.148 179.783 534.874 178.373Z" fill="white"/>
<path d="M542.998 299.581C561.974 290.34 569.914 267.553 560.733 248.686C551.552 229.819 528.726 222.016 509.749 231.257C490.773 240.499 482.833 263.286 492.014 282.153C501.195 301.02 524.021 308.823 542.998 299.581Z" fill="#B9FF66"/>
<path d="M526.18 304.347C522.108 304.347 517.957 303.72 513.924 302.349C504.057 299.059 496.07 292.165 491.449 282.842C486.829 273.558 486.124 263.021 489.452 253.15C496.344 232.821 518.506 221.735 538.905 228.512C548.773 231.802 556.76 238.696 561.381 248.019C566.001 257.302 566.706 267.839 563.377 277.711C557.817 294.006 542.508 304.347 526.18 304.347ZM526.572 228.277C510.949 228.277 496.305 238.148 491.019 253.738C487.847 263.178 488.513 273.245 492.937 282.098C497.362 290.989 504.997 297.609 514.433 300.743C533.933 307.206 555.116 296.63 561.694 277.201C564.865 267.761 564.2 257.694 559.775 248.841C555.351 239.95 547.715 233.33 538.279 230.196C534.403 228.864 530.448 228.277 526.572 228.277Z" fill="black"/>
<path d="M545.837 259.261C545.446 268.78 529.353 291.029 525.516 296.238C525.124 296.787 524.302 296.748 523.949 296.16C521.522 292.243 513.495 279.082 509.305 268.427C507.622 264.197 506.565 260.358 506.682 257.655C507.113 246.844 516.236 238.422 527.043 238.853C537.85 239.362 546.268 248.45 545.837 259.261Z" fill="black"/>
<path d="M532.592 264.826C536.094 261.323 536.094 255.644 532.592 252.141C529.091 248.638 523.413 248.638 519.912 252.141C516.41 255.644 516.41 261.323 519.912 264.826C523.413 268.33 529.091 268.329 532.592 264.826Z" fill="#B9FF66"/>
<defs>
<clipPath id="clip0_1_596">
<rect width="36" height="36" fill="white" transform="translate(292.999 427)"/>
</clipPath>
<clipPath id="clip1_1_596">
<rect width="70.3259" height="70.3259" fill="white" transform="translate(107.728 313) rotate(45)"/>
</clipPath>
</defs>
</svg>
